<svg width="220" height="131.741" xmlns="http://www.w3.org/2000/svg">
 <defs>
  <linearGradient y2="0.00781" x2="1" y1="0" x1="0" id="svg_9">
   <stop offset="0" stop-color="#E6C36A"/>
   <stop stop-opacity="0.98828" offset="1" stop-color="#efef83"/>
  </linearGradient>
 </defs>
 <g>
  <title>Layer 1</title>
  <path id="svg_1" fill="#fce38f" d="m152.37483,0l-39.54985,13.60421l0,47.35058c-1.72513,-0.8136 -4.0209,-0.9426 -6.30349,-0.18174c-3.94745,1.3155 -6.34681,4.78176 -5.35995,7.74235s4.98611,4.29304 8.93356,2.97754c3.5237,-1.17425 5.80629,-4.06233 5.55487,-6.77527l0,-42.62532l33.89987,-11.6738l0,30.77449c-1.72795,-0.8249 -4.03597,-0.95955 -6.32986,-0.19492c-3.94745,1.3155 -6.34681,4.78176 -5.35995,7.74235s4.98611,4.29304 8.93356,2.97754c3.31936,-1.10645 5.5351,-3.73369 5.57276,-6.30161l0.00847,0l0,-45.41641zm-71.56639,0.43411l0,40.49151c-1.75997,-0.83996 -4.21959,-0.91435 -6.5568,-0.13466c-4.01996,1.33999 -6.46452,4.87028 -5.45976,7.88549s5.07839,4.37308 9.09929,3.0331c3.38057,-1.12717 5.69424,-3.80244 5.7319,-6.41838l0.01036,0l0,-31.67378s12.17194,3.52276 16.00827,16.94993c0,-15.34534 -13.18328,-17.8916 -18.83326,-30.13322zm17.34826,65.91641l-33.35653,0l0,1.88333l33.40644,0a7.29789,7.29789 0 0 1 -0.04991,-1.88333zm57.04312,1.88333l0,-1.88333l-36.81902,0a8.1548,8.1548 0 0 1 -0.55652,1.88333l37.37555,0zm-87.50121,-16.00827l-2.89844,0l0,1.88333l5.52756,0c-1.01794,-0.47177 -1.90969,-1.1074 -2.62912,-1.88333zm87.50121,1.88333l0,-1.88333l-3.54913,0c-0.92095,0.7571 -1.98879,1.40025 -3.18,1.88333l6.72912,0zm-18.45565,-1.88333l-18.2692,0l0,1.88333l20.86254,0a8.23013,8.23013 0 0 1 -2.59334,-1.88333zm-53.96765,0a12.61828,12.61828 0 0 1 -3.23273,1.88333l30.45621,0l0,-1.88333l-27.22348,0zm3.6819,-14.12495l23.54158,0l0,1.88333l-23.54158,0l0,-1.88333zm-13.06557,0l-8.59268,0l0,1.88333l4.94373,0c1.04148,-0.77687 2.25528,-1.42003 3.61504,-1.87391c0.0113,-0.00377 0.0226,-0.00565 0.0339,-0.00942zm45.08212,1.88333l20.54897,0a12.71245,12.71245 0 0 1 3.30241,-1.6658l0.74956,-0.21752l-24.60095,0l0,1.88333zm-25.18949,-16.00827l-6.82706,0l0,1.88333l8.09359,0c-0.40209,-0.67046 -0.82584,-1.29761 -1.26654,-1.88333zm-28.48531,0l13.18328,0l0,1.88333l-13.18328,0l0,-1.88333zm53.67479,1.88333l28.24989,0l0,-1.88333l-27.86758,0l-0.38232,0.13183l0,1.75149zm-16.43108,0l7.95611,0l0,-1.88333l-8.37892,0l0.42281,1.88333zm-8.30264,-14.12495l16.9763,0a2.81557,2.81557 0 0 1 1.18932,-0.80136l3.1461,-1.08197l-23.24024,0l1.92853,1.88333zm-28.94107,-1.88333l13.18328,0l0,1.88333l-13.18328,0l0,-1.88333z"/>
  <text stroke-opacity="0" transform="matrix(1.37449 0 0 1 -18.0688 0)" stroke="#000000" xml:space="preserve" text-anchor="start" font-family="'Antonio'" font-size="32" stroke-width="0" id="svg_5" y="116.69483" x="59.53963" fill="url(#svg_9)">MP01</text>
 </g>
</svg>